<svg width="150" height="150" xmlns="http://www.w3.org/2000/svg" viewBox="0 0 150 150">
  <rect width="150" height="150" rx="12" fill="#f8f7ff"/>
  <!-- Tabs -->
  <rect x="12" y="16" width="38" height="20" rx="6" fill="#6366f1"/>
  <rect x="54" y="16" width="38" height="20" rx="6" fill="#e8e8f0"/>
  <rect x="96" y="16" width="38" height="20" rx="6" fill="#e8e8f0"/>
  <!-- Tab text -->
  <rect x="20" y="22" width="22" height="8" rx="3" fill="#fff" opacity="0.8"/>
  <rect x="62" y="22" width="22" height="8" rx="3" fill="#999" opacity="0.6"/>
  <rect x="104" y="22" width="22" height="8" rx="3" fill="#999" opacity="0.6"/>
  <!-- Field rows with checkboxes -->
  <rect x="12" y="44" width="126" height="24" rx="5" fill="#fff" stroke="#e5e5f5" stroke-width="1"/>
  <rect x="18" y="50" width="12" height="12" rx="3" fill="#6366f1"/>
  <rect x="37" y="52" width="60" height="8" rx="3" fill="#ddd"/>
  <rect x="12" y="72" width="126" height="24" rx="5" fill="#f0f0ff" stroke="#c7c5f0" stroke-width="1"/>
  <rect x="18" y="78" width="12" height="12" rx="3" fill="#6366f1"/>
  <rect x="24" y="81" width="6" height="6" rx="1" fill="#fff"/>
  <rect x="37" y="80" width="80" height="8" rx="3" fill="#6366f1" opacity="0.3"/>
  <rect x="12" y="100" width="126" height="24" rx="5" fill="#fff" stroke="#e5e5f5" stroke-width="1"/>
  <rect x="18" y="106" width="12" height="12" rx="3" fill="#ccc"/>
  <rect x="37" y="108" width="45" height="8" rx="3" fill="#ddd"/>
  <!-- AI Button -->
  <rect x="82" y="128" width="56" height="16" rx="8" fill="#6366f1"/>
  <rect x="90" y="132" width="6" height="8" rx="2" fill="#fff" opacity="0.9"/>
  <rect x="100" y="133" width="30" height="6" rx="3" fill="#fff" opacity="0.8"/>
</svg>